<svg width="50" height="50" viewBox="0 0 50 50" fill="none" xmlns="http://www.w3.org/2000/svg">
<path fill-rule="evenodd" clip-rule="evenodd" d="M14.098 42.0982C14.9116 41.2846 14.9116 39.9654 14.098 39.1519L9.32111 34.375L14.098 29.5982C14.9116 28.7846 14.9116 27.4654 14.098 26.6519C13.2844 25.8384 11.9653 25.8384 11.1517 26.6519L4.90169 32.9019C4.08811 33.7154 4.08811 35.0346 4.90169 35.8482L11.1517 42.0982C11.9653 42.9117 13.2844 42.9117 14.098 42.0982Z" fill="#7F54B3"/>
<path fill-rule="evenodd" clip-rule="evenodd" d="M45.7082 34.3751C45.7082 33.2245 44.6175 32.2917 43.2719 32.2917H6.72778C5.38225 32.2917 4.2915 33.2245 4.2915 34.3751C4.2915 35.5257 5.38225 36.4584 6.72778 36.4584H43.2719C44.6175 36.4584 45.7082 35.5257 45.7082 34.3751Z" fill="#7F54B3"/>
<path fill-rule="evenodd" clip-rule="evenodd" d="M42.0979 17.0982C42.9115 16.2846 42.9115 14.9655 42.0979 14.1519L35.8479 7.90194C35.0344 7.08835 33.7152 7.08835 32.9017 7.90194C32.0881 8.71554 32.0881 10.0346 32.9017 10.8482L37.6785 15.6251L32.9017 20.4019C32.0881 21.2155 32.0881 22.5347 32.9017 23.3482C33.7152 24.1617 35.0344 24.1617 35.8479 23.3482L42.0979 17.0982Z" fill="#40A944"/>
<path fill-rule="evenodd" clip-rule="evenodd" d="M41.4167 15.7501C41.4167 14.5995 40.3259 13.6667 38.9804 13.6667H2.43627C1.09074 13.6667 0 14.5995 0 15.7501C0 16.9007 1.09074 17.8334 2.43627 17.8334H38.9804C40.3259 17.8334 41.4167 16.9007 41.4167 15.7501Z" fill="#40A944"/>
</svg>
