<svg width="24" height="24" viewBox="0 0 24 24" fill="none" xmlns="http://www.w3.org/2000/svg">
  <g clip-path="url(#clip0_803_9)">
    <path fill-rule="evenodd" clip-rule="evenodd"
      d="M12 23C18.0751 23 23 18.0751 23 12C23 5.92487 18.0751 1 12 1C5.92487 1 1 5.92487 1 12C1 18.0751 5.92487 23 12 23ZM12 24C18.6274 24 24 18.6274 24 12C24 5.37258 18.6274 0 12 0C5.37258 0 0 5.37258 0 12C0 18.6274 5.37258 24 12 24Z"
      fill="currentColor" />
    <path fill-rule="evenodd" clip-rule="evenodd"
      d="M8.80002 8.00009L15.9999 15.2L15.2 16L8.00003 8.80008L8.80002 8.00009Z" fill="currentColor" />
    <path fill-rule="evenodd" clip-rule="evenodd"
      d="M15.9999 8.80002L8.79999 15.9999L8 15.2L15.1999 8.00003L15.9999 8.80002Z" fill="currentColor" />
  </g>
  <defs>
    <clipPath id="clip0_803_9">
      <rect width="24" height="24" fill="currentColor" />
    </clipPath>
  </defs>
</svg>
